<?xml version="1.0" encoding="utf-8"?>
<?xml-stylesheet type="text/xsl" href="rss1.xsl"?>
<rss version="2.0" xmlns:atom="http://www.w3.org/2005/Atom" xmlns:content="http://purl.org/rss/1.0/modules/content/" xmlns:dc="http://purl.org/dc/elements/1.1/" xmlns:media="http://search.yahoo.com/mrss/">
<channel>
 <title>Getty</title>
 <link>http://www.gettyimg.com/</link>
 <atom:link href="http://www.gettyimg.com/" rel="self" type="application/rss+xml" />

 
                <item>
                <title><![CDATA[【Requests】[REQ CAP] - Young &amp; Hungry (Complete series 1-5)]]></title>
                <link><![CDATA[https://sharemania.us/threads/young-hungry-complete-series-1-5.247407/]]></link>
                <description><![CDATA[<article>
<blockquote class="messageText SelectQuoteContainer ugc baseHtml">
Please, can someone rip this show with dual audio and spanish subtitles taken from disney plus or some other streaming service?
<div class="messageTextEndMarker">&nbsp;</div>
</blockquote>
</article>]]></description>
                <author><![CDATA[rominuchiis]]></author>
                </item>

                
                <item>
                <title><![CDATA[【HD Live Performances】WEB-DL - The Pop Out - Ken and Friends]]></title>
                <link><![CDATA[https://sharemania.us/threads/the-pop-out-ken-and-friends.247406/]]></link>
                <description><![CDATA[<article>
<blockquote class="messageText SelectQuoteContainer ugc baseHtml">
Streamed live on <a href="https://twitch.tv/amazonmusic" target="_blank" class="externalLink" rel="nofollow">https://twitch.tv/amazonmusic</a> on June 19, 2024<br>
<br>
Setlist (DJ Hed Set):<br>
1. Remble - Touchable (Remble brought out)<br>
2. Ray Vaughn - Problems (Ray Vaughn brought out)<br>
3. Cuzzos - GOLDMEMBERS (Cuzzos brought out)<br>
4. Rucci &amp; Azchike - Light It Up (both artists brought out)<br>
5. Jay Worthy - Meet the Whoops (The Whoops brought out)<br>
6. Wallie the Sensei - 03 Flow (Wallie the Sensei brought out)<br>
7. Westside Boogie - Silent Ride (Westside Boogie brought out)<br>
8. Zoe Osama - Underrated (Zoe Osama brought out)<br>
9. Kalan.FrFr &amp; G Perico - Right Wit It (Both brought out)<br>
10. Bino Rideaux - Bozo (Bino brought out)<br>
11. Bluebucksclan - Walkin In (Blue brought out)<br>
12. RJmrLA - Get Rich (RJ brought out)<br>
13. OhGeesy - GEEKALEEK (Geezy brought out)<br>
14. Jason Martin - Like Whaaat (Jason brought out)<br>
<br>
Tommy The Clown was brought out for a dance set<br>
<br>
MUSTARD SETLIST:<br>
<br>
Mustard &amp; Migos - Pure Water<br>
Juvenile, Lil Wayne, &amp; Mannie Fresh - Back That Azz Up<br>
<br>
310Babii brought out<br>
310Babii - soak city (do it)<br>
<br>
Tyga - Rack City<br>
2 Chainz - I'm Different<br>
Kid Ink - Show Me<br>
Big Sean - I Don't Fuck With You<br>
<br>
Blxst brought out<br>
Blxst - Overrated<br>
<br>
Blxst &amp; Ty Dolla $ign - Chosen (Ty brought out midway)<br>
Ty Dolla $ign - Paranoid<br>
<br>
Dom Kennedy brought out<br>
Dom Kennedy - My Type of Party<br>
Dom Kennedy - When I Come Around<br>
<br>
Steve Lacy brought out<br>
Steve Lacy - Static<br>
Steve Lacy - Bad Habit<br>
<br>
Tyler, The Creator brought out<br>
Tyler, The Creator - WUSYANAME<br>
Tyler, The Creator - Earfquake<br>
<br>
Nipsey Hussle tribute<br>
Mustard &amp; Nipsey Hussle - Perfect Ten<br>
Nipsey Hussle - Last That Time I Checc'd<br>
<br>
Nipsey Hussle &amp; Roddy Ricch - Racks in the Middle<br>
Roddy Ricch brought out<br>
Roddy Ricch - Die Young<br>
Roddy Ricch - The Box<br>
Mustard &amp; Roddy Ricch - Ballin'<br>
<br>
YG Brought Out<br>
YG - BPT<br>
YG &amp; Lil Wayne - My * * * * * (Remix)<br>
YG - You Broke (for 2 seconds)<br>
YG - Toot It and Boot It<br>
YG - Who Do You Love?<br>
YG - Big Bank<br>
<br>
KENDRICK SETLIST<br>
<br>
1. euphoria<br>
2. DNA.<br>
3. ELEMENT.<br>
4. Alright<br>
5. Swimming Pools (Drank)<br>
6. Money Trees (with Jay Rock)<br>
7. WIN (with Jay Rock)<br>
8. King's Dead (with Jay Rock)<br>
9. 6:16 in LA (with Ab-Soul &amp; Jay Rock)<br>
10. Collard Greens (with ScHoolboy Q, Ab-Soul &amp; Jay Rock)<br>
11. THat Part (with ScHoolboy Q, Ab-Soul &amp; Jay Rock)<br>
12. King Kunta (with ScHoolboy Q, Ab-Soul &amp; Jay Rock)<br>
13. m.A.A.d city<br>
14. HUMBLE.<br>
15. Like That<br>
16. Still D.R.E. (with Dr. Dre)<br>
17. California Love (with Dr. Dre)<br>
18. Not Like Us (with Dr. Dre)<br>
19. Not Like Us<br>
20. Not Like Us<br>
21. Not Like Us (with Everybody)<br>
22. Not Like Us (with Everybody)<br>
23. Not Like Us (Instrumental) (with Everybody)<br>
<br>
General<br>
Complete name : The Pop Out - Ken and Friends.mp4<br>
Format : MPEG-4<br>
Format profile : Base Media<br>
Codec ID : isom (isom/iso2/avc1/mp41)<br>
File size : 8.34 GiB<br>
Duration : 4 h 17 min<br>
Overall bit rate mode : Variable<br>
Overall bit rate : 4 637 kb/s<br>
Frame rate : 30.000 FPS<br>
Writing application : Lavf58.29.100<br>
FileExtension_Invalid : braw mov mp4 m4v m4a m4b m4p m4r 3ga 3gpa 3gpp 3gp 3gpp2 3g2 k3g jpm jpx mqv ismv isma ismt f4a f4b f4v<br>
<br>
Video<br>
ID : 2<br>
Format : AVC<br>
Format/Info : Advanced Video Codec<br>
Format profile : Main@L4.1<br>
Format settings : CABAC / 2 Ref Frames<br>
Format settings, CABAC : Yes<br>
Format settings, Reference frames : 2 frames<br>
Format settings, GOP : M=3, N=60<br>
Format settings, Slice count : 4 slices per frame<br>
Codec ID : avc1<br>
Codec ID/Info : Advanced Video Coding<br>
Duration : 4 h 17 min<br>
Bit rate mode : Constant<br>
Bit rate : 4 500 kb/s<br>
Width : 1 920 pixels<br>
Height : 1 080 pixels<br>
Display aspect ratio : 16:9<br>
Frame rate mode : Variable<br>
Frame rate : 30.000 FPS<br>
Minimum frame rate : 29.412 FPS<br>
Maximum frame rate : 30.303 FPS<br>
Standard : NTSC<br>
Color space : YUV<br>
Chroma subsampling : 4:2:0<br>
Bit depth : 8 bits<br>
Scan type : Progressive<br>
Bits/(Pixel*Frame) : 0.072<br>
Stream size : 8.10 GiB (97%)<br>
Color range : Limited<br>
Color primaries : BT.709<br>
Transfer characteristics : BT.709<br>
Matrix coefficients : BT.709<br>
Codec configuration box : avcC<br>
<br>
Audio<br>
ID : 1<br>
Format : AAC LC<br>
Format/Info : Advanced Audio Codec Low Complexity<br>
Codec ID : mp4a-40-2<br>
Duration : 4 h 17 min<br>
Bit rate mode : Variable<br>
Bit rate : 126 kb/s<br>
Maximum bit rate : 129 kb/s<br>
Channel(s) : 2 channels<br>
Channel layout : L R<br>
Sampling rate : 44.1 kHz<br>
Frame rate : 43.066 FPS (1024 SPF)<br>
Compression mode : Lossy<br>
Stream size : 231 MiB (3%)<br>
Default : Yes<br>
Alternate group : 1<br>
<br>
<a href="https://archive.org/details/the-pop-out-ken-and-friends" target="_blank" class="externalLink" rel="nofollow">https://archive.org/details/the-pop-out-ken-and-friends</a><br>
<a href="https://buzzheavier.com/f/GQfa4dJyoAA=" target="_blank" class="externalLink" rel="nofollow">https://buzzheavier.com/f/GQfa4dJyoAA=</a>
<div class="messageTextEndMarker">&nbsp;</div>
</blockquote>
</article>]]></description>
                <author><![CDATA[mrballsthefake]]></author>
                </item>

                </channel></rss>